<?xml version="1.0" encoding="iso-8859-1"?>
<!-- Generator: Adobe Illustrator 19.0.0, SVG Export Plug-In . SVG Version: 6.00 Build 0)  -->
<svg version="1.1" id="Layer_1" xmlns="http://www.w3.org/2000/svg" xmlns:xlink="http://www.w3.org/1999/xlink" x="0px" y="0px"
	 viewBox="0 0 512 512" style="enable-background:new 0 0 512 512;" xml:space="preserve">
<g>
	<g>
		<g>
			<rect x="105.792" y="260.194" width="15.938" height="15.527"/>
			<rect x="137.664" y="260.194" width="15.937" height="15.527"/>
			<rect x="169.546" y="260.194" width="15.937" height="15.527"/>
			<rect x="201.418" y="260.194" width="15.937" height="15.527"/>
			<rect x="233.29" y="260.194" width="15.937" height="15.527"/>
			<rect x="265.173" y="260.194" width="15.938" height="15.527"/>
			<rect x="297.045" y="260.194" width="15.937" height="15.527"/>
			<rect x="328.917" y="260.194" width="15.937" height="15.527"/>
			<rect x="360.8" y="260.194" width="15.937" height="15.527"/>
			<polygon points="233.089,116.339 249.232,116.339 249.232,100.812 233.089,100.812 233.089,84.464 249.232,84.464 
				249.232,68.936 233.089,68.936 233.089,36.65 251.448,36.65 305.556,214.431 320.409,209.911 262.951,21.123 217.561,21.123 
				217.561,212.171 233.089,212.171 			"/>
			<path d="M475.716,268.299l-36.368-36.368c-7.472-7.472-17.406-11.586-27.972-11.586H102.282l-17.913-30.707l0.083,0.016
				l14.704-80.873H60.017l-7.269,26.652l-6.25-10.714H2.401v138.7l11.213,10.193L0,323.53h39.508l7.209-19.824l48.103,43.731h122.74
				v143.44h45.391l43.656-143.44h169.379c19.858,0,36.014-16.156,36.014-36.013v-3.626C512,287.07,496.01,270.008,475.716,268.299z
				 M71.877,124.307h8.674l-8.149,44.817l-8.687-14.893L71.877,124.307z M28.633,308.003h-8.304l19.672-72.131h14.862
				L28.633,308.003z M100.823,331.91l-9.218-8.38H217.56v8.38H100.823z M305.556,297.569l-54.108,177.782h-18.359v-32.286h16.143
				v-15.527h-16.143v-16.348h16.143v-15.527h-16.143V291.86h-15.527v16.143H74.526l-22.074-20.067l24.58-67.591h-48.89L18.2,256.797
				l-0.271-0.247V140.245h19.652l55.783,95.627h318.013c6.419,0,12.454,2.5,16.993,7.039l17.279,17.279h-29.071v15.527h44.598
				l0.782,0.781l-25.204,31.505H318.609l1.8-5.914L305.556,297.569z M475.986,331.91H311.333l2.551-8.38h130.332l31.667-39.585
				c11.632,1.71,20.589,11.753,20.589,23.852v3.627h0.001C496.473,322.72,487.283,331.91,475.986,331.91z"/>
		</g>
	</g>
</g>
<g>
</g>
<g>
</g>
<g>
</g>
<g>
</g>
<g>
</g>
<g>
</g>
<g>
</g>
<g>
</g>
<g>
</g>
<g>
</g>
<g>
</g>
<g>
</g>
<g>
</g>
<g>
</g>
<g>
</g>
</svg>
